<svg xmlns="http://www.w3.org/2000/svg" xmlns:xlink="http://www.w3.org/1999/xlink" width="500" zoomAndPan="magnify" viewBox="0 0 375 374.999991" height="500" preserveAspectRatio="xMidYMid meet" version="1.0"><path fill="#ffffff" d="M 164.625 13.125 C 125.25 18.300781 89.175781 36.300781 62.25 64.199219 C 36.148438 91.273438 21 120.601562 14.101562 157.5 C 12.226562 167.925781 11.398438 193.800781 12.75 205.648438 C 15.148438 228.148438 20.699219 246.824219 30.675781 266.625 C 39.523438 284.101562 50.25 298.648438 64.425781 312.675781 C 91.273438 339.148438 123.675781 355.199219 162.375 361.273438 C 174.824219 363.300781 201.898438 363.074219 214.5 360.898438 C 244.574219 355.726562 269.175781 345.375 292.800781 327.898438 C 301.648438 321.300781 318.523438 304.648438 325.648438 295.5 C 344.699219 270.75 356.398438 243.375 361.273438 212.25 C 363.074219 200.398438 363.074219 174.824219 361.273438 162.75 C 355.273438 123.75 338.851562 90.898438 311.550781 63.375 C 283.574219 35.101562 246.148438 17.023438 206.851562 12.824219 C 197.101562 11.699219 173.925781 11.925781 164.625 13.125 Z M 207.523438 23.625 C 226.800781 26.175781 242.25 30.75 259.050781 38.851562 C 303.300781 60.226562 336 100.425781 347.550781 147.824219 C 350.925781 161.925781 352.050781 171.675781 352.050781 187.875 C 352.050781 204.523438 351 213.449219 347.25 228.148438 C 337.5 266.699219 313.425781 300.976562 279.75 324.148438 C 261 337.050781 237.898438 346.199219 213.75 350.324219 C 205.425781 351.75 200.773438 352.050781 187.5 352.050781 C 177.75 352.050781 169.050781 351.675781 165.375 351.074219 C 149.324219 348.523438 139.125 345.824219 127.273438 341.175781 C 70.574219 318.675781 31.574219 268.648438 23.625 208.199219 C 22.199219 196.949219 22.199219 177.300781 23.625 165.976562 C 29.699219 119.550781 55.726562 77.324219 94.273438 51.148438 C 118.273438 34.949219 140.625 26.851562 172.125 23.023438 C 178.5 22.199219 199.574219 22.648438 207.523438 23.625 Z M 207.523438 23.625 " fill-opacity="1" fill-rule="nonzero"/><path fill="#ffffff" d="M 174.75 66.074219 C 159.675781 68.625 144.601562 76.5 133.425781 87.675781 C 120.675781 100.574219 113.699219 115.425781 111.601562 134.324219 C 110.851562 141.148438 110.925781 143.625 111.976562 151.351562 C 112.726562 156.449219 114.226562 163.273438 115.574219 167.023438 C 116.851562 170.625 118.050781 174.148438 118.273438 174.824219 C 118.5 175.726562 117.976562 176.175781 116.476562 176.550781 C 112.726562 177.523438 105.148438 182.175781 100.574219 186.375 C 94.800781 191.773438 90.523438 198.449219 88.050781 205.949219 L 86.101562 212.023438 L 81.226562 214.425781 C 75.523438 217.199219 68.398438 223.648438 64.800781 229.273438 C 60.675781 235.648438 58.5 243.226562 58.5 251.398438 C 58.5 263.550781 62.25 272.398438 70.800781 280.875 C 77.023438 287.023438 81.675781 289.726562 89.699219 291.75 C 95.324219 293.175781 98.25 293.25 187.050781 293.25 C 287.699219 293.25 284.101562 293.398438 293.625 288.601562 C 302.925781 284.023438 310.273438 275.699219 314.175781 265.5 C 316.800781 258.523438 316.949219 245.699219 314.398438 238.273438 C 310.875 228.300781 303.449219 219.75 293.625 214.5 L 288.675781 211.875 L 286.5 205.574219 C 281.851562 192.074219 271.273438 181.273438 257.851562 176.324219 L 255.824219 175.574219 L 257.550781 171.601562 C 261.75 161.925781 262.875 155.773438 262.875 141.75 C 262.875 130.425781 262.648438 127.726562 261.148438 122.25 C 259.050781 114.449219 253.875 103.351562 249.300781 96.976562 C 237.898438 81 218.699219 69.074219 199.5 66 C 193.726562 65.101562 180.523438 65.175781 174.75 66.074219 Z M 202.800781 82.125 C 207.824219 83.550781 214.125 86.25 218.925781 89.023438 C 223.050781 91.425781 222.824219 91.5 211.050781 93.449219 C 199.574219 95.398438 175.273438 95.398438 163.949219 93.523438 C 152.175781 91.5 151.949219 91.425781 155.925781 88.949219 C 160.574219 86.023438 169.800781 82.425781 175.875 81.300781 C 182.476562 80.023438 196.726562 80.476562 202.800781 82.125 Z M 153 106.800781 C 177.226562 111.898438 204 111.300781 229.726562 105.074219 L 235.574219 103.726562 L 237.675781 106.800781 C 240.898438 111.523438 244.199219 118.351562 246.148438 124.5 C 247.648438 129.375 247.875 131.625 247.875 141.523438 C 247.875 147.75 247.648438 153.074219 247.425781 153.300781 C 247.199219 153.601562 245.101562 152.925781 242.773438 151.875 C 234.976562 148.273438 226.949219 148.800781 220.125 153.375 L 217.273438 155.324219 L 211.425781 152.699219 C 202.875 148.800781 196.800781 147.449219 187.125 147.449219 C 177.824219 147.449219 170.550781 149.101562 162.449219 153.074219 L 157.726562 155.398438 L 154.125 153.074219 C 147.074219 148.648438 138.75 148.273438 131.476562 152.25 L 127.574219 154.351562 L 126.976562 150.824219 C 125.925781 144.675781 126.523438 132.824219 128.175781 126.375 C 129.976562 119.550781 133.726562 111.375 137.101562 106.726562 C 139.351562 103.726562 139.574219 103.648438 141.898438 104.324219 C 143.25 104.699219 148.273438 105.824219 153 106.800781 Z M 197.625 163.648438 C 201.601562 164.625 209.25 168.074219 209.25 168.824219 C 209.25 169.199219 207.601562 173.625 205.5 178.726562 C 202.273438 186.824219 201.75 188.699219 201.75 193.273438 C 201.75 197.625 202.125 199.273438 204 203.101562 C 208.199219 211.425781 214.800781 215.550781 224.25 215.550781 C 229.199219 215.550781 230.398438 215.25 234.523438 213.074219 C 240.375 209.925781 243.148438 206.476562 246.898438 197.398438 C 248.550781 193.425781 250.050781 189.976562 250.199219 189.824219 C 250.875 189.148438 260.550781 194.476562 263.550781 197.25 C 269.773438 203.023438 272.476562 208.5 274.050781 218.773438 L 274.875 224.398438 L 280.5 225.824219 C 290.625 228.375 297.675781 235.125 300.449219 244.800781 C 301.875 249.824219 301.574219 255.375 299.550781 261.226562 C 297.75 266.476562 291.449219 273 285.601562 275.699219 L 280.875 277.875 L 189.449219 278.101562 C 88.648438 278.324219 92.851562 278.476562 85.351562 273.675781 C 81.074219 270.898438 78.601562 268.125 75.898438 262.949219 C 74.101562 259.5 73.875 258.300781 73.875 251.625 C 73.875 244.875 74.101562 243.75 75.976562 240.148438 C 78.75 234.824219 82.425781 230.925781 86.773438 228.601562 C 90.074219 226.800781 92.25 226.050781 98.476562 224.699219 C 100.199219 224.324219 100.5 223.800781 100.5 221.773438 C 100.5 209.773438 108 197.25 118.050781 192.449219 C 124.5 189.375 124.425781 189.300781 127.5 196.726562 C 131.023438 205.125 134.101562 209.476562 138.449219 212.25 C 149.851562 219.449219 165 215.101562 171.074219 202.800781 C 172.5 199.800781 172.875 197.925781 172.875 193.125 C 172.875 187.648438 172.5 186.375 168.976562 177.898438 L 165.148438 168.75 L 168.601562 166.949219 C 177.898438 162.300781 187.875 161.175781 197.625 163.648438 Z M 147.074219 167.175781 C 148.199219 168.300781 150.976562 174.074219 153.75 180.898438 C 157.875 191.101562 158.398438 192.976562 157.800781 195.074219 C 156.226562 200.550781 149.175781 202.351562 145.5 198.226562 C 143.550781 196.125 134.25 174.449219 134.25 172.125 C 134.25 169.800781 136.648438 166.351562 138.976562 165.375 C 142.050781 164.101562 144.601562 164.625 147.074219 167.175781 Z M 235.199219 165 C 235.800781 165 237.148438 165.898438 238.125 166.949219 C 241.125 170.175781 240.601562 173.550781 235.199219 186.300781 C 230.023438 198.75 228.449219 200.625 223.726562 200.476562 C 220.125 200.398438 216.75 196.875 216.75 193.273438 C 216.75 191.25 223.726562 173.175781 226.5 167.925781 C 227.476562 166.199219 231.601562 164.101562 233.101562 164.625 C 233.699219 164.851562 234.601562 165 235.199219 165 Z M 235.199219 165 " fill-opacity="1" fill-rule="nonzero"/><path fill="#ffffff" d="M 180 240.375 L 180 263.25 L 195 263.25 L 195 217.5 L 180 217.5 Z M 180 240.375 " fill-opacity="1" fill-rule="nonzero"/><path fill="#ffffff" d="M 149.398438 247.648438 L 149.625 262.875 L 164.625 262.875 L 164.625 232.875 L 156.898438 232.648438 L 149.25 232.425781 Z M 149.398438 247.648438 " fill-opacity="1" fill-rule="nonzero"/><path fill="#ffffff" d="M 210 247.875 L 210 263.25 L 225 263.25 L 225 232.5 L 210 232.5 Z M 210 247.875 " fill-opacity="1" fill-rule="nonzero"/><path fill="#ffffff" d="M 119.25 255.375 L 119.25 263.25 L 134.25 263.25 L 134.25 247.5 L 119.25 247.5 Z M 119.25 255.375 " fill-opacity="1" fill-rule="nonzero"/><path fill="#ffffff" d="M 240.300781 248.476562 C 240.148438 249 240 252.523438 240.148438 256.199219 L 240.375 262.875 L 255.375 262.875 L 255.375 247.875 L 248.023438 247.648438 C 242.398438 247.5 240.601562 247.648438 240.300781 248.476562 Z M 240.300781 248.476562 " fill-opacity="1" fill-rule="nonzero"/></svg>
